HIERARCHY
ROOT hip
{
  OFFSET 0 0 0
  CHANNELS 6 Xposition Yposition Zposition Zrotation Yrotation Xrotation
  JOINT abdomen
  {
    OFFSET 0 20.6881 -0.73152
    CHANNELS 3 Zrotation Xrotation Yrotation
    JOINT chest
    {
      OFFSET 0 11.7043 -0.48768
      CHANNELS 3 Zrotation Xrotation Yrotation
      JOINT neck
      {
        OFFSET 0 22.1894 -2.19456
        CHANNELS 3 Zrotation Xrotation Yrotation
        JOINT head
        {
          OFFSET -0.24384 7.07133 1.2192
          CHANNELS 3 Zrotation Xrotation Yrotation
          JOINT leftEye
          {
            OFFSET 4.14528 8.04674 8.04672
            CHANNELS 3 Zrotation Xrotation Yrotation
            End Site
            {
              OFFSET 1 0 0
            }
          }
          JOINT rightEye
          {
            OFFSET -3.6576 8.04674 8.04672
            CHANNELS 3 Zrotation Xrotation Yrotation
            End Site
            {
              OFFSET 1 0 0
            }
          }
        }
      }
      JOINT rCollar
      {
        OFFSET -2.68224 19.2634 -4.8768
        CHANNELS 3 Zrotation Xrotation Yrotation
        JOINT rShldr
        {
          OFFSET -8.77824 -1.95073 1.46304
          CHANNELS 3 Zrotation Xrotation Yrotation
          JOINT rForeArm
          {
            OFFSET -28.1742 -1.7115 0.48768
            CHANNELS 3 Zrotation Xrotation Yrotation
            JOINT rHand
            {
              OFFSET -22.5879 0.773209 7.07136
              CHANNELS 3 Zrotation Xrotation Yrotation
              JOINT rThumb1
              {
                OFFSET -1.2192 -0.487915 3.41376
                CHANNELS 3 Zrotation Xrotation Yrotation
                JOINT rThumb2
                {
                  OFFSET -3.37035 -0.52449 3.41376
                  CHANNELS 3 Zrotation Xrotation Yrotation
                  End Site
                  {
                    OFFSET -1.78271 -1.18214 1.43049
                  }
                }
              }
              JOINT rIndex1
              {
                OFFSET -7.75947 0.938293 5.60832
                CHANNELS 3 Zrotation Xrotation Yrotation
                JOINT rIndex2
                {
                  OFFSET -2.54057 -0.884171 1.56538
                  CHANNELS 3 Zrotation Xrotation Yrotation
                  End Site
                  {
                    OFFSET -1.62519 -0.234802 1.16502
                  }
                }
              }
              JOINT rMid1
              {
                OFFSET -8.24714 1.18213 3.41376
                CHANNELS 3 Zrotation Xrotation Yrotation
                JOINT rMid2
                {
                  OFFSET -3.10165 -0.590103 1.0647
                  CHANNELS 3 Zrotation Xrotation Yrotation
                  End Site
                  {
                    OFFSET -2.48547 -0.328903 0.83742
                  }
                }
              }
              JOINT rRing1
              {
                OFFSET -8.82822 0.546677 1.51678
                CHANNELS 3 Zrotation Xrotation Yrotation
                JOINT rRing2
                {
                  OFFSET -2.60934 -0.819778 -0.0198488
                  CHANNELS 3 Zrotation Xrotation Yrotation
                  End Site
                  {
                    OFFSET -2.33842 -0.294052 0.168128
                  }
                }
              }
              JOINT rPinky1
              {
                OFFSET -8.27202 -0.0477905 -0.4584
                CHANNELS 3 Zrotation Xrotation Yrotation
                JOINT rPinky2
                {
                  OFFSET -1.82734 -0.647385 -0.700984
                  CHANNELS 3 Zrotation Xrotation Yrotation
                  End Site
                  {
                    OFFSET -1.69225 -0.51767 -0.607171
                  }
                }
              }
            }
          }
        }
      }
      JOINT lCollar
      {
        OFFSET 2.68224 19.2634 -4.8768
        CHANNELS 3 Zrotation Xrotation Yrotation
        JOINT lShldr
        {
          OFFSET 8.77824 -1.95073 1.46304
          CHANNELS 3 Zrotation Xrotation Yrotation
          JOINT lForeArm
          {
            OFFSET 28.1742 -1.7115 0.48768
            CHANNELS 3 Zrotation Xrotation Yrotation
            JOINT lHand
            {
              OFFSET 22.5879 0.773209 7.07136
              CHANNELS 3 Zrotation Xrotation Yrotation
              JOINT lThumb1
              {
                OFFSET 1.2192 -0.487915 3.41376
                CHANNELS 3 Zrotation Xrotation Yrotation
                JOINT lThumb2
                {
                  OFFSET 3.37035 -0.52449 3.41376
                  CHANNELS 3 Zrotation Xrotation Yrotation
                  End Site
                  {
                    OFFSET 1.78271 -1.18214 1.43049
                  }
                }
              }
              JOINT lIndex1
              {
                OFFSET 7.75947 0.938293 5.60832
                CHANNELS 3 Zrotation Xrotation Yrotation
                JOINT lIndex2
                {
                  OFFSET 2.54057 -0.884171 1.56538
                  CHANNELS 3 Zrotation Xrotation Yrotation
                  End Site
                  {
                    OFFSET 1.62519 -0.234802 1.16502
                  }
                }
              }
              JOINT lMid1
              {
                OFFSET 8.24714 1.18213 3.41376
                CHANNELS 3 Zrotation Xrotation Yrotation
                JOINT lMid2
                {
                  OFFSET 3.10165 -0.590103 1.0647
                  CHANNELS 3 Zrotation Xrotation Yrotation
                  End Site
                  {
                    OFFSET 2.48547 -0.328903 0.83742
                  }
                }
              }
              JOINT lRing1
              {
                OFFSET 8.82822 0.546677 1.51678
                CHANNELS 3 Zrotation Xrotation Yrotation
                JOINT lRing2
                {
                  OFFSET 2.60934 -0.819778 -0.0198488
                  CHANNELS 3 Zrotation Xrotation Yrotation
                  End Site
                  {
                    OFFSET 2.33842 -0.294052 0.168128
                  }
                }
              }
              JOINT lPinky1
              {
                OFFSET 8.27202 -0.0477905 -0.4584
                CHANNELS 3 Zrotation Xrotation Yrotation
                JOINT lPinky2
                {
                  OFFSET 1.82734 -0.647385 -0.700984
                  CHANNELS 3 Zrotation Xrotation Yrotation
                  End Site
                  {
                    OFFSET 1.69225 -0.51767 -0.607171
                  }
                }
              }
            }
          }
        }
      }
    }
  }
  JOINT rButtock
  {
    OFFSET -8.77824 4.35084 1.2192
    CHANNELS 3 Zrotation Xrotation Yrotation
    JOINT rThigh
    {
      OFFSET 0 -1.70687 -2.19456
      CHANNELS 3 Zrotation Xrotation Yrotation
      JOINT rShin
      {
        OFFSET 0 -36.8199 0.73152
        CHANNELS 3 Zrotation Xrotation Yrotation
        JOINT rFoot
        {
          OFFSET 0.73152 -45.1104 -5.12064
          CHANNELS 3 Zrotation Xrotation Yrotation
          End Site
          {
            OFFSET -1.1221 -3.69964 12.103
          }
        }
      }
    }
  }
  JOINT lButtock
  {
    OFFSET 8.77824 4.35084 1.2192
    CHANNELS 3 Zrotation Xrotation Yrotation
    JOINT lThigh
    {
      OFFSET 0 -1.70687 -2.19456
      CHANNELS 3 Zrotation Xrotation Yrotation
      JOINT lShin
      {
        OFFSET 0 -36.8199 0.73152
        CHANNELS 3 Zrotation Xrotation Yrotation
        JOINT lFoot
        {
          OFFSET -0.73152 -45.1104 -5.12064
          CHANNELS 3 Zrotation Xrotation Yrotation
          End Site
          {
            OFFSET 1.1221 -3.69964 12.103
          }
        }
      }
    }
  }
}
MOTION
Frames:	7
Frame Time:	0.00833333
0.0 0.0 0.0 0.0 0.0 0.0 0.0 0.0 0.0 0.0 0.0 0.0 0.0 0.0 0.0 0.0 0.0 0.0 0.0 0.0 0.0 0.0 0.0 0.0 0.0 0.0 0.0 0.0 0.0 0.0 0.0 0.0 0.0 0.0 0.0 0.0 0.0 0.0 0.0 0.0 0.0 0.0 0.0 0.0 0.0 0.0 0.0 0.0 0.0 0.0 0.0 0.0 0.0 0.0 0.0 0.0 0.0 0.0 0.0 0.0 0.0 0.0 0.0 0.0 0.0 0.0 0.0 0.0 0.0 0.0 0.0 0.0 0.0 0.0 0.0 0.0 0.0 0.0 0.0 0.0 0.0 0.0 0.0 0.0 0.0 0.0 0.0 0.0 0.0 0.0 0.0 0.0 0.0 0.0 0.0 0.0 0.0 0.0 0.0 0.0 0.0 0.0 0.0 0.0 0.0 0.0 0.0 0.0 0.0 0.0 0.0 0.0 0.0 0.0 0.0 0.0 0.0 0.0 0.0 0.0 0.0 0.0 0.0 0.0 0.0 0.0 0.0 0.0 0.0 0.0 0.0 0.0
123.46899999999998 83.9953 2.28479 -0.0 0.0 -0.0 0.0 0.0 0.0 0.0 0.0 -0.0 -2.189902 0.70575 -13.10212 2.292863 -0.190556 13.119422 0.0 -0.0 -0.0 0.0 -0.0 -0.0 -155.569543 -3.943241 161.929333 28.083566 -29.965093 16.947442 179.781542 -10.743 178.134521 -7.292474 22.558351 0.672586 82.305236 -50.136196 32.954928 -141.399517 11.430429 106.647669 11.98129 -21.346868 -5.061629 90.144346 -57.280638 45.158854 -0.969343 2.779591 0.553338 79.569029 -78.294171 54.197485 -74.840941 72.961123 92.827929 16.005535 55.502267 -12.664411 -145.173549 12.06758 -141.82295 82.281347 84.597619 -41.384149 155.460052 -3.227798 -161.777534 -13.395777 15.541733 -17.867422 168.037439 -5.245069 -176.178033 -6.073975 -18.341811 -1.617632 -1.600551 -1.586397 0.224241 136.694758 -38.67898 -119.307987 -88.792192 -75.499035 -40.049684 107.638354 33.745422 -88.199364 36.913089 52.189857 -30.651534 147.443706 38.701278 -134.412786 145.119721 0.310087 179.225753 14.353229 -72.040102 45.924294 -17.604334 61.627798 -12.867429 165.481595 55.612743 145.197253 -0.0 0.0 -0.0 -0.0 -0.0 -0.0 7.081855 4.181059 77.332942 -131.790123 -69.60711 128.119608 -0.0 0.0 -0.0 -0.0 -0.0 -0.0 -3.553753 0.481011 -31.672039 92.455114 19.643207 -23.713806
122.76800000000001 83.9745 2.07949 -0.0 0.0 -0.0 -0.0 -4.771896 -180.0 -0.0 -4.771896 -180.0 -8.144544 9.765136 -77.762661 11.253376 5.904095 77.877376 0.0 -0.0 -0.0 0.0 -0.0 -0.0 -85.537448 68.182427 88.688908 5.843373 75.512119 13.59165 1.967451 -15.170399 -33.682325 166.512484 -27.278325 141.946506 27.451228 -26.099095 2.267476 -135.567569 -15.2455 120.298684 -0.044126 0.071581 0.024943 0.288815 -0.413598 -0.073232 0.541241 -1.589941 -0.294737 -12.308719 29.352873 7.394063 -73.625838 72.972031 91.55425 13.36818 44.243103 -12.102754 6.227694 18.789635 5.573717 -141.064365 -11.903376 -135.32988 155.504155 -3.514523 -161.838528 -32.504698 -40.551456 -18.735735 -177.500585 -15.61683 -176.934295 9.742322 29.160394 -1.515391 169.319662 -7.000857 -89.921973 -13.936983 -59.141206 -16.071393 160.015165 -33.011829 -122.698522 123.51884 28.810602 -108.086635 160.673322 -6.667841 -143.245105 167.187736 -26.248394 -143.955503 132.481743 54.102976 -155.533585 -17.922607 32.510461 13.220205 -5.663198 16.872151 -5.087837 78.015353 -54.078206 74.992352 -0.0 0.0 -0.0 -0.0 -2.27635 -180.0 -4.055723 -2.993391 -143.675094 72.408322 -56.754181 -23.284793 -0.0 0.0 -0.0 -0.0 -2.27635 -180.0 0.8711 -15.292348 -8.675706 16.611804 17.757358 -170.063873
122.045 83.9586 1.85898 -0.0 -0.0 -0.0 -0.0 -4.771896 -180.0 -0.0 -4.771896 180.0 -7.906765 12.08614 -91.106352 11.93363 8.136982 91.092829 0.0 -0.0 -0.0 0.0 -0.0 -0.0 -155.417258 -2.951435 161.718542 -0.568189 44.106012 26.965668 97.836704 80.951842 -96.524046 -16.915609 44.354758 5.315997 -5.433768 5.264911 1.077842 28.991506 -41.475362 -13.385586 -10.571294 15.013433 6.865128 -174.617275 -15.336212 112.944726 -160.573436 -6.359341 143.198121 -160.696984 -6.739029 143.250056 -145.121954 1.975391 -179.748922 -68.335311 -77.565619 -100.0517 -126.797849 -26.619602 -124.512652 72.210202 86.415302 -31.228241 143.620413 38.233348 -148.080496 165.140082 -65.004932 -166.398525 6.439577 5.862318 2.590402 -7.960772 -23.344505 -2.463065 -51.059793 -41.203951 -12.856726 38.533383 25.93992 -9.186578 11.063308 15.60616 -7.220017 -12.394507 -21.185501 3.988178 0.219913 0.63841 -0.122732 10.287347 25.723576 -5.845823 145.118942 0.185529 179.186624 -21.069539 6.461423 8.252547 135.820882 -11.891747 133.184746 22.519329 -41.289534 26.094385 -0.0 0.0 -0.0 -0.0 -0.0 -0.0 4.304493 0.86717 39.030537 51.159233 -50.862044 -36.786167 -0.0 0.0 -0.0 -0.0 -0.0 -0.0 -7.051593 4.103085 -76.605942 148.517609 14.932217 -84.086964
121.353 83.9421 1.61782 -0.0 0.0 -0.0 -0.0 -4.771896 -180.0 -0.0 -4.771896 -180.0 -8.144544 9.765136 -77.762661 11.253376 5.904095 77.877376 0.0 -0.0 -0.0 0.0 -0.0 -0.0 -85.537448 68.182427 88.688908 5.843373 75.512119 13.59165 1.967451 -15.170399 -33.682325 166.512484 -27.278325 141.946506 88.928376 -50.831327 37.599672 -15.664047 -43.125866 -30.212105 -117.900883 27.950241 99.678959 -166.528191 -35.298328 125.005545 -0.219913 0.63841 0.122732 17.543632 -47.949813 1.059909 -0.014868 -1.323148 -0.415899 -158.64598 43.381504 162.994052 -75.778902 -51.667921 -74.249466 -18.177582 -38.621857 -19.293005 155.504155 -3.514523 -161.838528 -32.504698 -40.551456 -18.735735 -177.500585 -15.61683 -176.934295 9.742322 29.160394 -1.515391 14.735954 13.58533 -3.967358 132.328217 -33.334015 -109.211515 166.821797 -43.973781 -122.061691 -90.134459 -63.942551 -27.374826 164.637861 -19.283648 -144.733631 16.102248 42.302901 -16.002267 74.840941 72.961123 -92.827929 -11.451761 33.193448 12.282693 -17.604334 61.627798 -12.867429 -15.097778 41.871889 -4.777828 -0.0 0.0 -0.0 -0.0 -2.27635 -180.0 -6.880793 -5.921355 -107.859822 -11.465574 25.060334 -64.504817 -0.0 0.0 -0.0 -0.0 -2.27635 -180.0 -0.078774 -15.217273 -16.951096 -31.742216 2.151306 -168.233784
120.69300000000001 83.9259 1.36569 -0.0 0.0 -0.0 -0.0 0.0 0.0 0.0 0.0 -0.0 -7.906765 12.08614 -91.106352 11.93363 8.136982 91.092829 -0.0 0.0 -0.0 -0.0 0.0 -0.0 -155.417258 -2.951435 161.718542 98.047494 -75.988484 75.510742 -18.571993 -69.750923 -23.985458 5.875044 -17.791325 1.536924 3.542085 -3.523858 -0.437451 -164.62714 -75.898135 116.904782 -159.053898 -31.319752 122.653982 -79.583165 54.490616 72.438886 -82.840589 61.110826 74.532293 -15.914761 44.104637 11.258427 0.003601 0.605621 0.190249 -86.784097 78.858355 89.811581 -156.381711 53.734251 -150.117957 -162.018767 53.138888 -144.520136 143.620413 38.233348 -148.080496 -24.952448 -24.92584 -6.720507 8.661204 0.534697 26.377843 -132.42417 -63.842954 -114.523275 5.433768 5.264911 -1.077842 134.944903 -36.73224 -115.034554 132.81837 12.807409 -111.109258 162.236739 -33.684574 -124.355255 0.219913 0.63841 -0.122732 11.996922 28.96841 -7.080895 0.000142 -0.018512 0.005816 0.061517 0.863837 -0.112599 5.514624 -12.596526 5.174679 86.830932 -54.555774 84.253077 -0.0 0.0 -0.0 0.0 -0.0 0.0 -5.253206 4.259844 -61.803787 -34.624843 -58.712693 63.133401 -0.0 0.0 -0.0 0.0 -0.0 0.0 -3.819913 0.604099 -34.22701 -34.9501 -33.503038 39.216874
120.03200000000001 83.906 1.13117 -0.0 0.0 -0.0 -0.0 -4.771896 -180.0 -0.0 -4.771896 180.0 11.483215 6.478691 81.370012 -8.135423 10.383433 -81.281682 0.0 -0.0 -0.0 0.0 -0.0 -0.0 -80.1661 68.371792 83.260848 -70.364354 86.569962 89.873968 92.483675 72.427737 -101.945895 -104.122176 74.162315 84.221942 -178.927535 -16.453687 89.421826 -46.715304 -14.682969 4.753453 88.792192 -75.499035 40.049684 -6.250793 25.982201 13.217677 -39.289155 53.36602 32.877985 -4.969579 21.344137 1.502425 -145.119209 0.22664 -179.199539 18.150327 -20.897794 -12.156267 25.916531 79.094076 10.831563 10.260718 24.952153 2.345064 155.61387 -4.23638 -161.991154 77.473338 68.953395 -98.034803 176.750711 -62.74216 -144.929436 -167.756146 -24.257768 -142.592632 178.927535 -16.453687 -89.421826 44.88877 -16.564437 -3.913132 172.896918 -51.894009 -120.180804 170.284748 -42.397073 -107.45904 0.057679 0.167876 -0.032027 166.353766 -4.309907 -143.285572 145.121954 1.975391 179.748922 134.676008 -50.182115 167.03756 144.109804 8.78177 140.874541 92.262502 -50.101767 93.946122 -180.0 75.749642 -0.0 -180.0 73.473292 -180.0 4.312569 -4.794474 135.631106 104.522633 18.049976 -19.712738 -180.0 75.749642 -0.0 -180.0 73.473292 -180.0 -4.312569 -4.794474 -135.631106 5.076459 -7.419957 -48.05985
